<?xml version="1.0" encoding="iso-8859-1"?>
<!-- Uploaded to: SVG Repo, www.svgrepo.com, Generator: SVG Repo Mixer Tools -->
<svg version="1.1" id="Layer_1" xmlns="http://www.w3.org/2000/svg" xmlns:xlink="http://www.w3.org/1999/xlink" 
	 viewBox="0 0 512 512" xml:space="preserve">
<path style="fill:#8DE0A8;" d="M293.291,352.291c8.199,9.985,20.641,16.355,34.571,16.355c24.693,0,44.711-20.018,44.711-44.711
	c0-2.602-0.234-5.147-0.661-7.627c4.486,1.17,9.19,1.797,14.042,1.797c30.647,0,55.491-24.844,55.491-55.491
	c0-13.67-4.952-26.176-13.147-35.848c13.736-10.101,22.654-26.369,22.654-44.726c0-24.077-15.337-44.564-36.771-52.245
	c3.481-7.255,5.431-15.383,5.431-23.968c0-30.647-24.844-55.491-55.491-55.491c-1.275,0-2.536,0.059-3.79,0.143
	c-2.684-22.127-21.519-39.275-44.371-39.275c-10.692,0-20.504,3.757-28.197,10.019c-8.501-7.963-19.921-12.848-32.489-12.848
	s-23.988,4.885-32.489,12.848c-7.694-6.261-17.504-10.019-28.197-10.019c-22.852,0-41.686,17.147-44.371,39.275
	c-1.254-0.085-2.515-0.143-3.79-0.143c-30.647,0-55.491,24.844-55.491,55.491c0,8.585,1.952,16.713,5.431,23.968
	c-21.434,7.681-36.771,28.17-36.771,52.245c0,18.358,8.92,34.625,22.654,44.726c-8.195,9.671-13.147,22.178-13.147,35.848
	c0,30.647,24.844,55.491,55.491,55.491c4.852,0,9.556-0.626,14.042-1.797c-0.427,2.48-0.661,5.025-0.661,7.627
	c0,24.693,20.018,44.711,44.711,44.711c12.347,0,23.524-5.005,31.615-13.096"/>
<path style="fill:#7BC690;" d="M183.2,323.935c0-2.602,0.234-5.147,0.661-7.627c-4.486,1.17-9.19,1.797-14.042,1.797
	c-30.647,0-55.491-24.844-55.491-55.491c0-13.669,4.952-26.176,13.147-35.848c-13.736-10.101-22.654-26.369-22.654-44.726
	c0-24.077,15.337-44.564,36.771-52.245c-3.481-7.256-5.431-15.384-5.431-23.968c0-30.647,24.844-55.491,55.491-55.491
	c1.275,0,2.536,0.058,3.79,0.143c1.715-14.136,10.026-26.23,21.759-33.129c-6.634-3.9-14.358-6.147-22.611-6.147
	c-22.852,0-41.686,17.147-44.371,39.276c-1.254-0.085-2.515-0.143-3.79-0.143c-30.647,0-55.491,24.844-55.491,55.491
	c0,8.585,1.951,16.713,5.431,23.968c-21.434,7.681-36.771,28.169-36.771,52.245c0,18.358,8.92,34.625,22.654,44.726
	c-8.195,9.671-13.147,22.178-13.147,35.848c0,30.647,24.844,55.491,55.491,55.491c4.852,0,9.556-0.626,14.042-1.797
	c-0.427,2.48-0.661,5.025-0.661,7.627c0,24.693,20.018,44.711,44.711,44.711c8.252,0,15.976-2.244,22.611-6.143
	C192.079,354.736,183.2,340.377,183.2,323.935z"/>
<path style="fill:#FCD577;" d="M378.304,241.198l-62.281,62.281c-14.554,14.554-22.73,34.294-22.73,54.876v145.269h-76.035V316.322
	c0-13.62-5.41-26.681-15.041-36.312l-64.246-64.246l23.042-23.042l56.244,56.244v-57.931h76.035v89.09l61.969-61.969"/>
<rect x="217.556" y="189.929" style="fill:#EAC36E;" width="23.65" height="313.698"/>
<path d="M382.983,248.485c0.384,0.012,0.767,0.028,1.152,0.028c9.228,0,17.903-3.593,24.428-10.119
	c3.271-3.271,3.271-8.574,0-11.843c-3.271-3.271-8.574-3.271-11.843,0c-6.939,6.939-18.23,6.939-25.169,0s-6.939-18.23,0-25.169
	c3.271-3.271,3.271-8.574,0-11.843c-3.271-3.272-8.574-3.271-11.843,0c-6.249,6.249-9.593,14.316-10.044,22.515
	c-0.066,0.061-0.136,0.117-0.201,0.182l-47.672,47.672v-66.408c10.711-8.748,17.564-22.049,17.564-36.924
	c0-4.625-3.75-8.375-8.375-8.375c-4.625,0-8.375,3.75-8.375,8.375c0,17.046-13.868,30.914-30.913,30.914
	c-5.201,0-10.347-1.319-14.878-3.813c-2.674-1.473-5.937-1.372-8.517,0.26c-3.673,2.325-7.917,3.553-12.273,3.553
	c-12.685,0-23.005-10.32-23.005-23.005c0-4.625-3.75-8.375-8.375-8.375s-8.375,3.75-8.375,8.375c0,11.496,4.91,21.862,12.736,29.126
	v35.138l-41.948-41.948c-0.157-0.157-0.324-0.301-0.49-0.443c-0.845-7.506-4.13-14.788-9.874-20.533
	c-3.271-3.272-8.574-3.271-11.843,0c-3.271,3.271-3.271,8.572,0,11.843c6.939,6.939,6.939,18.23,0,25.169
	c-4.44,4.44-10.979,6.219-17.068,4.643c-4.474-1.157-9.047,1.532-10.206,6.01c-1.159,4.478,1.532,9.047,6.01,10.206
	c2.842,0.736,5.733,1.093,8.607,1.093c0.986,0,1.97-0.05,2.949-0.134l61.276,61.277c8.118,8.118,12.588,18.91,12.588,30.389v187.303
	c0,4.625,3.75,8.375,8.375,8.375s8.375-3.75,8.375-8.375V316.322c0-15.953-6.213-30.952-17.494-42.234l-55.813-55.814
	c1.497-1.075,2.921-2.27,4.245-3.594c2.534-2.535,4.591-5.368,6.172-8.387l48.594,48.594c1.602,1.602,3.744,2.453,5.924,2.453
	c1.079,0,2.167-0.209,3.204-0.638c3.13-1.296,5.17-4.35,5.17-7.737v-46.082c3.277,0.878,6.719,1.352,10.269,1.352
	c5.907,0,11.695-1.308,16.984-3.812c5.881,2.504,12.257,3.812,18.684,3.812c4.634,0,9.111-0.677,13.349-1.916v77.803
	c0,3.388,2.04,6.441,5.17,7.737c1.036,0.429,2.124,0.638,3.204,0.638c2.18,0,4.321-0.851,5.924-2.453l54.856-54.856
	c1.481,2.577,3.314,5.005,5.514,7.205c1.644,1.644,3.425,3.101,5.316,4.363l-54.8,54.8c-16.239,16.239-25.184,37.832-25.184,60.798
	v59.579c0,4.625,3.75,8.375,8.375,8.375c4.625,0,8.375-3.75,8.375-8.375v-59.579c0-18.493,7.201-35.878,20.277-48.955
	L382.983,248.485z"/>
<path d="M293.416,439.732c-4.625,0-8.375,3.75-8.375,8.375v55.517c0,4.625,3.75,8.375,8.375,8.375c4.625,0,8.375-3.75,8.375-8.375
	v-55.517C301.79,443.482,298.041,439.732,293.416,439.732z"/>
<path d="M192.381,359c-3.099,0.844-6.319,1.272-9.57,1.272c-20.036,0-36.337-16.301-36.337-36.337c0-2.036,0.182-4.124,0.539-6.207
	c0.482-2.805-0.492-5.661-2.588-7.586c-2.096-1.925-5.025-2.653-7.779-1.936c-3.883,1.013-7.896,1.525-11.929,1.525
	c-25.98,0-47.116-21.137-47.116-47.117c0-11.132,3.964-21.939,11.162-30.433c1.501-1.77,2.2-4.085,1.928-6.391
	c-0.27-2.306-1.486-4.395-3.355-5.771c-9.356-6.882-15.826-16.881-18.217-28.158c-0.959-4.525-5.401-7.417-9.93-6.455
	c-4.525,0.959-7.414,5.405-6.455,9.93c2.663,12.559,9.045,23.943,18.253,32.773c-6.578,10.242-10.135,22.229-10.135,34.504
	c0,35.215,28.65,63.866,63.865,63.866c1.689,0,3.377-0.067,5.057-0.2c1.232,28.187,24.549,50.74,53.035,50.74
	c4.737,0,9.436-0.625,13.968-1.859c4.463-1.215,7.096-5.818,5.881-10.281C201.446,360.419,196.841,357.785,192.381,359z"/>
<path d="M59.852,172.761c0.864,0.281,1.741,0.417,2.603,0.417c3.525,0,6.805-2.243,7.959-5.776
	c4.487-13.732,15.291-24.844,28.904-29.722c2.232-0.801,4.021-2.509,4.921-4.702c0.901-2.193,0.83-4.666-0.195-6.804
	c-3.057-6.374-4.607-13.22-4.607-20.345c0-25.98,21.137-47.117,47.117-47.117c0.941,0,1.968,0.04,3.226,0.124
	c4.44,0.308,8.34-2.928,8.877-7.348c2.206-18.191,17.708-31.909,36.056-31.909c8.445,0,16.368,2.815,22.911,8.139
	c3.248,2.644,7.954,2.481,11.011-0.384c7.286-6.825,16.79-10.585,26.761-10.585c9.972,0,19.475,3.76,26.763,10.585
	c3.057,2.865,7.763,3.028,11.011,0.384c6.545-5.325,14.467-8.139,22.912-8.139c18.349,0,33.85,13.718,36.056,31.909
	c0.536,4.419,4.436,7.652,8.877,7.347c1.26-0.085,2.285-0.124,3.226-0.124c5.331,0,10.558,0.881,15.536,2.62
	c4.369,1.524,9.143-0.781,10.667-5.147c1.524-4.367-0.779-9.143-5.147-10.667c-5.793-2.022-11.827-3.19-17.978-3.482
	c-6.15-22.804-26.994-39.204-51.239-39.204c-9.83,0-19.483,2.76-27.801,7.868C278.766,3.76,267.316,0,255.397,0
	c-11.919,0-23.369,3.759-32.884,10.699c-8.318-5.109-17.971-7.868-27.801-7.868c-24.245,0-45.089,16.401-51.239,39.204
	c-33.793,1.611-60.787,29.609-60.787,63.793c0,6.73,1.023,13.28,3.048,19.561c-14.667,7.674-26.062,20.953-31.244,36.81
	C53.055,166.596,55.456,171.325,59.852,172.761z"/>
<path d="M459.449,182.042c0-23.975-13.518-45.782-34.386-56.661c2.024-6.279,3.046-12.826,3.046-19.554
	c0-16.849-6.502-32.745-18.31-44.761c-3.242-3.299-8.543-3.344-11.843-0.104c-3.3,3.242-3.345,8.545-0.104,11.843
	c8.711,8.864,13.508,20.591,13.508,33.021c0,7.126-1.55,13.971-4.607,20.345c-1.025,2.138-1.097,4.611-0.195,6.804
	c0.901,2.193,2.689,3.903,4.921,4.702c18.676,6.692,31.222,24.519,31.222,44.362c0,14.921-7.193,29.119-19.241,37.979
	c-1.87,1.376-3.085,3.465-3.355,5.771c-0.271,2.305,0.428,4.62,1.928,6.391c7.198,8.493,11.162,19.301,11.162,30.433
	c0,25.98-21.136,47.117-47.116,47.117c-4.033,0-8.047-0.513-11.929-1.525c-2.755-0.717-5.684,0.011-7.779,1.936
	c-2.095,1.925-3.071,4.783-2.588,7.586c0.358,2.083,0.539,4.171,0.539,6.207c0,20.036-16.301,36.337-36.337,36.337
	c-3.436,0-6.833-0.477-10.097-1.419c-4.446-1.281-9.086,1.282-10.368,5.726c-1.281,4.444,1.282,9.086,5.726,10.368
	c4.772,1.376,9.732,2.074,14.737,2.074c28.486,0,51.803-22.553,53.035-50.74c1.681,0.133,3.368,0.2,5.057,0.2
	c35.216,0,63.865-28.651,63.865-63.866c0-12.28-3.558-24.268-10.14-34.513C452.227,216.138,459.449,199.454,459.449,182.042z"/>
<path d="M243.181,363.665c-4.625,0-8.375,3.75-8.375,8.375v37.966c0,4.625,3.75,8.375,8.375,8.375s8.375-3.75,8.375-8.375V372.04
	C251.556,367.415,247.806,363.665,243.181,363.665z"/>
</svg>